<svg width="3052" height="531" viewBox="0 0 3052 531" fill="none" xmlns="http://www.w3.org/2000/svg">
    <rect x="16" y="16" width="3020" height="499" rx="200" fill="none"/>
    <rect x="16" y="16" width="3020" height="499" rx="200" stroke="url(#paint0_radial_161_81)" stroke-width="32"/>
    <path d="M334.32 256.611H378.655V385.889H340.087V371.083C322.064 383.361 299.476 389.5 272.322 389.5C249.012 389.5 227.625 384.444 208.161 374.333C188.696 364.222 173.077 349.537 161.302 330.278C149.767 311.018 144 288.028 144 261.306C144 236.028 149.887 213.398 161.662 193.417C173.437 173.194 189.657 157.546 210.323 146.472C231.23 135.157 254.659 129.5 280.612 129.5C301.759 129.5 320.983 132.991 338.285 139.972C355.586 146.954 370.125 157.185 381.899 170.667L352.342 199.556C333.118 180.296 309.929 170.667 282.775 170.667C264.992 170.667 249.132 174.519 235.195 182.222C221.498 189.685 210.684 200.278 202.754 214C195.064 227.722 191.219 243.37 191.219 260.944C191.219 279.481 195.064 295.491 202.754 308.972C210.684 322.213 221.137 332.324 234.113 339.306C247.09 346.046 261.268 349.417 276.647 349.417C287.461 349.417 297.794 347.731 307.646 344.361C317.739 340.991 326.63 336.056 334.32 329.556V256.611Z"
          fill="#109CF1"/>
    <path d="M461.005 221.222C473.981 201 496.81 190.889 529.491 190.889V233.861C525.646 233.139 522.162 232.778 519.038 232.778C501.496 232.778 487.799 237.954 477.946 248.306C468.094 258.417 463.168 273.102 463.168 292.361V385.889H418.111V193.056H461.005V221.222Z"
          fill="#109CF1"/>
    <path d="M736.088 193.056V385.889H693.194V360.972C685.744 370.12 676.493 376.981 665.439 381.556C654.625 386.13 642.61 388.417 629.393 388.417C610.65 388.417 593.828 384.324 578.93 376.139C564.271 367.954 552.737 356.398 544.326 341.472C536.156 326.546 532.071 309.213 532.071 289.472C532.071 269.731 536.156 252.519 544.326 237.833C552.737 222.907 564.271 211.352 578.93 203.167C593.828 194.981 610.65 190.889 629.393 190.889C641.889 190.889 653.303 193.056 663.636 197.389C674.21 201.722 683.341 208.102 691.031 216.528V193.056H736.088ZM634.44 349.778C651.02 349.778 664.718 344.241 675.531 333.167C686.345 322.093 691.752 307.528 691.752 289.472C691.752 271.417 686.345 256.852 675.531 245.778C664.718 234.704 651.02 229.167 634.44 229.167C617.859 229.167 604.161 234.704 593.348 245.778C582.775 256.852 577.488 271.417 577.488 289.472C577.488 307.528 582.775 322.093 593.348 333.167C604.161 344.241 617.859 349.778 634.44 349.778Z"
          fill="#109CF1"/>
    <path d="M886.233 190.889C910.504 190.889 929.968 197.991 944.627 212.194C959.285 226.398 966.615 247.463 966.615 275.389V385.889H921.558V281.167C921.558 264.315 917.593 251.676 909.663 243.25C901.733 234.583 890.439 230.25 875.78 230.25C859.199 230.25 846.103 235.306 836.491 245.417C826.879 255.287 822.073 269.611 822.073 288.389V385.889H777.016V193.056H819.91V217.972C827.359 209.065 836.731 202.324 848.025 197.75C859.319 193.176 872.055 190.889 886.233 190.889Z"
          fill="#109CF1"/>
    <path d="M1099.06 350.139C1119.97 350.139 1137.39 343.157 1151.33 329.194L1175.12 357C1166.71 367.352 1155.9 375.176 1142.68 380.472C1129.46 385.768 1114.56 388.417 1097.98 388.417C1076.84 388.417 1058.21 384.204 1042.11 375.778C1026.01 367.352 1013.52 355.676 1004.63 340.75C995.975 325.583 991.649 308.491 991.649 289.472C991.649 270.694 995.855 253.843 1004.27 238.917C1012.92 223.75 1024.69 211.954 1039.59 203.528C1054.73 195.102 1071.79 190.889 1090.77 190.889C1108.8 190.889 1125.14 194.861 1139.8 202.806C1154.69 210.509 1166.47 221.704 1175.12 236.389C1183.77 250.833 1188.1 267.806 1188.1 287.306L1040.67 316.194C1045.24 327.269 1052.57 335.694 1062.66 341.472C1072.75 347.25 1084.89 350.139 1099.06 350.139ZM1090.77 227C1074.19 227 1060.74 232.417 1050.4 243.25C1040.31 254.083 1035.26 268.648 1035.26 286.944V287.306L1144.12 266.361C1141 254.565 1134.63 245.056 1125.02 237.833C1115.65 230.611 1104.23 227 1090.77 227Z"
          fill="#109CF1"/>
    <path d="M1304.92 350.139C1325.82 350.139 1343.25 343.157 1357.18 329.194L1380.97 357C1372.56 367.352 1361.75 375.176 1348.53 380.472C1335.32 385.768 1320.42 388.417 1303.84 388.417C1282.69 388.417 1264.07 384.204 1247.97 375.778C1231.87 367.352 1219.37 355.676 1210.48 340.75C1201.83 325.583 1197.5 308.491 1197.5 289.472C1197.5 270.694 1201.71 253.843 1210.12 238.917C1218.77 223.75 1230.54 211.954 1245.44 203.528C1260.58 195.102 1277.64 190.889 1296.63 190.889C1314.65 190.889 1330.99 194.861 1345.65 202.806C1360.55 210.509 1372.32 221.704 1380.97 236.389C1389.62 250.833 1393.95 267.806 1393.95 287.306L1246.52 316.194C1251.09 327.269 1258.42 335.694 1268.51 341.472C1278.6 347.25 1290.74 350.139 1304.92 350.139ZM1296.63 227C1280.05 227 1266.59 232.417 1256.26 243.25C1246.16 254.083 1241.12 268.648 1241.12 286.944V287.306L1349.97 266.361C1346.85 254.565 1340.48 245.056 1330.87 237.833C1321.5 230.611 1310.08 227 1296.63 227Z"
          fill="#109CF1"/>
    <path d="M1527.35 375.417C1522.06 379.75 1515.58 383 1507.89 385.167C1500.44 387.333 1492.51 388.417 1484.1 388.417C1462.95 388.417 1446.61 382.88 1435.07 371.806C1423.54 360.731 1417.77 344.602 1417.77 323.417V150.444H1462.83V194.5H1514.37V230.611H1462.83V322.333C1462.83 331.722 1465.11 338.944 1469.68 344C1474.48 348.815 1481.09 351.222 1489.5 351.222C1499.6 351.222 1508.01 348.574 1514.74 343.278L1527.35 375.417Z"
          fill="#109CF1"/>
    <path d="M1742.79 170.667C1721.16 170.667 1704.82 175.481 1693.77 185.111C1682.71 194.741 1677.19 208.944 1677.19 227.722V249.389H1787.13V289.111H1677.19V385.889H1630.33V227.722C1630.33 197.148 1640.06 173.194 1659.53 155.861C1679.23 138.287 1706.26 129.5 1740.63 129.5C1755.05 129.5 1768.5 131.065 1781 134.194C1793.49 137.324 1804.43 141.898 1813.8 147.917L1799.02 186.194C1784.12 175.843 1765.38 170.667 1742.79 170.667Z"
          fill="#109CF1"/>
    <path d="M1905.74 388.417C1886.28 388.417 1868.74 384.204 1853.12 375.778C1837.5 367.352 1825.24 355.676 1816.35 340.75C1807.7 325.583 1803.37 308.491 1803.37 289.472C1803.37 270.454 1807.7 253.481 1816.35 238.556C1825.24 223.63 1837.5 211.954 1853.12 203.528C1868.74 195.102 1886.28 190.889 1905.74 190.889C1925.45 190.889 1943.11 195.102 1958.73 203.528C1974.35 211.954 1986.48 223.63 1995.14 238.556C2004.03 253.481 2008.47 270.454 2008.47 289.472C2008.47 308.491 2004.03 325.583 1995.14 340.75C1986.48 355.676 1974.35 367.352 1958.73 375.778C1943.11 384.204 1925.45 388.417 1905.74 388.417ZM1905.74 349.778C1922.32 349.778 1936.02 344.241 1946.83 333.167C1957.65 322.093 1963.06 307.528 1963.06 289.472C1963.06 271.417 1957.65 256.852 1946.83 245.778C1936.02 234.704 1922.32 229.167 1905.74 229.167C1889.16 229.167 1875.46 234.704 1864.65 245.778C1854.08 256.852 1848.79 271.417 1848.79 289.472C1848.79 307.528 1854.08 322.093 1864.65 333.167C1875.46 344.241 1889.16 349.778 1905.74 349.778Z"
          fill="#109CF1"/>
    <path d="M2076.43 221.222C2089.41 201 2112.23 190.889 2144.92 190.889V233.861C2141.07 233.139 2137.59 232.778 2134.46 232.778C2116.92 232.778 2103.22 237.954 2093.37 248.306C2083.52 258.417 2078.59 273.102 2078.59 292.361V385.889H2033.54V193.056H2076.43V221.222Z"
          fill="#109CF1"/>
    <path d="M2408.06 190.889C2432.33 190.889 2451.56 197.991 2465.73 212.194C2479.91 226.157 2487 247.222 2487 275.389V385.889H2441.94V281.167C2441.94 264.315 2438.22 251.676 2430.77 243.25C2423.32 234.583 2412.63 230.25 2398.69 230.25C2383.55 230.25 2371.41 235.306 2362.28 245.417C2353.15 255.287 2348.59 269.491 2348.59 288.028V385.889H2303.53V281.167C2303.53 264.315 2299.8 251.676 2292.35 243.25C2284.91 234.583 2274.21 230.25 2260.27 230.25C2244.9 230.25 2232.64 235.185 2223.51 245.056C2214.62 254.926 2210.17 269.25 2210.17 288.028V385.889H2165.11V193.056H2208.01V217.611C2215.22 208.944 2224.23 202.324 2235.04 197.75C2245.86 193.176 2257.87 190.889 2271.09 190.889C2285.51 190.889 2298.24 193.657 2309.3 199.194C2320.59 204.491 2329.48 212.435 2335.97 223.028C2343.9 212.917 2354.11 205.093 2366.61 199.556C2379.1 193.778 2392.92 190.889 2408.06 190.889Z"
          fill="#109CF1"/>
    <path fill-rule="evenodd" clip-rule="evenodd"
          d="M2661.29 149.458H2610V129.5H2661.34C2670.89 129.472 2682.25 131.918 2691 137.628C2699.75 131.918 2711.11 129.472 2720.66 129.5H2772V149.458H2720.71C2720.69 149.474 2719.33 149.618 2717.67 150.712C2715.71 152.002 2712.15 155.437 2712.15 163.362V374.806L2712.14 374.974C2711.95 378.02 2712.84 382.393 2715.29 385.581C2716.47 387.101 2717.61 387.849 2718.3 388.167C2718.71 388.354 2719.2 388.542 2720.6 388.542H2772V408.5H2720.6C2707.16 408.5 2697.56 405.148 2691 400.879C2684.44 405.148 2674.84 408.5 2661.4 408.5H2610V388.542H2661.4C2662.8 388.542 2663.29 388.354 2663.7 388.167C2664.39 387.849 2665.53 387.101 2666.71 385.581C2669.16 382.393 2670.05 378.02 2669.86 374.974L2669.85 374.806V163.362C2669.85 155.437 2666.29 152.002 2664.33 150.712C2662.67 149.618 2661.31 149.474 2661.29 149.458Z"
          fill="#2d3133"/>
    <defs>
        <radialGradient id="paint0_radial_161_81" cx="0" cy="0" r="1" gradientUnits="userSpaceOnUse"
                        gradientTransform="translate(2724.46 -520.952) rotate(139.919) scale(3753.86 21087.9)">
            <stop stop-color="#109CF1"/>
            <stop offset="0.463542" stop-color="#109CF1"/>
            <stop offset="0.817708" stop-color="#30DCD7"/>
        </radialGradient>
    </defs>
</svg>
